<svg width="40" height="40" viewBox="0 0 40 40" fill="none" xmlns="http://www.w3.org/2000/svg">
<path fill-rule="evenodd" clip-rule="evenodd" d="M36.9996 4.78C34.2096 5.89 27.8996 8 19.9996 8C12.0996 8 5.78958 5.89 2.99958 4.78V1C2.99958 0.45 2.54958 0 1.99958 0C1.44958 0 0.999581 0.45 0.999581 1V4C0.629581 4 0.279581 4.2 0.109581 4.55C-0.140419 5.04 0.0595813 5.65 0.559581 5.89C0.559581 5.89 0.709581 5.97 1.00958 6.1V20C0.639581 20 0.289581 20.2 0.119581 20.55C-0.130419 21.04 0.0695813 21.65 0.569581 21.89C0.569581 21.89 0.719581 21.97 1.01958 22.1V39C1.01958 39.55 1.46958 40 2.01958 40C2.56958 40 3.01958 39.55 3.01958 39V22.92C4.46958 23.47 6.51958 24.14 9.01958 24.72V26H7.94958C7.39958 26 6.94958 26.45 6.94958 27V30C6.94958 30.13 6.96958 30.25 7.01958 30.36C6.39958 31.06 6.02958 31.99 6.02958 33C6.02958 35.21 7.81958 37 10.0296 37C12.2396 37 14.0296 35.21 14.0296 33C14.0296 31.93 13.6096 30.96 12.9296 30.24C12.9496 30.16 12.9596 30.08 12.9596 30V27C12.9596 26.45 12.5096 26 11.9596 26H11.0296V25.14C13.4096 25.59 16.1096 25.92 19.0296 25.99V27H18.0296C17.4796 27 17.0296 27.45 17.0296 28V31C17.0296 31.11 17.0496 31.21 17.0796 31.3C16.4296 32.01 16.0296 32.96 16.0296 34C16.0296 36.21 17.8196 38 20.0296 38C22.2396 38 24.0296 36.21 24.0296 34C24.0296 32.96 23.6296 32.01 22.9796 31.3C23.0096 31.2 23.0296 31.1 23.0296 31V28C23.0296 27.45 22.5796 27 22.0296 27H21.0296V25.99C23.9496 25.93 26.6496 25.59 29.0296 25.14V26H27.9596C27.4096 26 26.9596 26.45 26.9596 27V30C26.9596 30.13 26.9796 30.25 27.0296 30.36C26.4096 31.06 26.0396 31.99 26.0396 33C26.0396 35.21 27.8296 37 30.0396 37C32.2496 37 34.0396 35.21 34.0396 33C34.0396 31.93 33.6196 30.96 32.9396 30.24C32.9596 30.16 32.9696 30.08 32.9696 30V27C32.9696 26.45 32.5196 26 31.9696 26H31.0396V24.72C33.5396 24.14 35.5896 23.47 37.0396 22.92V39C37.0396 39.55 37.4896 40 38.0396 40C38.5896 40 39.0396 39.55 39.0396 39V22.1C39.3296 21.97 39.4896 21.89 39.4896 21.89C39.9796 21.64 40.1796 21.04 39.9396 20.55C39.7696 20.2 39.4096 20 39.0496 20V6.1C39.3396 5.97 39.4996 5.89 39.4996 5.89C39.9896 5.64 40.1896 5.04 39.9496 4.55C39.7796 4.2 39.4196 4 39.0596 4V1C39.0596 0.45 38.6096 0 38.0596 0C37.5096 0 37.0596 0.45 37.0596 1V4.78H36.9996ZM2.99958 6.92V20.78C5.78958 21.89 12.0996 24 19.9996 24C27.8996 24 34.2096 21.89 36.9996 20.78V6.92C35.5496 7.47 33.4996 8.14 30.9996 8.72V10H31.9296C32.4796 10 32.9296 10.45 32.9296 11V13.53C35.1096 16.01 33.4896 19.33 30.4596 20.89C30.1696 21.04 29.8296 21.04 29.5396 20.89C26.5796 19.36 24.9596 16.17 26.9196 13.7V11C26.9196 10.45 27.3696 10 27.9196 10H28.9896V9.14C26.6096 9.59 23.9096 9.92 20.9896 9.99V11H21.9896C22.5396 11 22.9896 11.45 22.9896 12V14.61C25.0596 17.08 23.4496 20.34 20.4496 21.89C20.1596 22.04 19.8196 22.04 19.5296 21.89C16.5296 20.34 14.9096 17.09 16.9896 14.61V12C16.9896 11.45 17.4396 11 17.9896 11H18.9896V9.99C16.0696 9.93 13.3696 9.59 10.9896 9.14V10H11.9196C12.4696 10 12.9196 10.45 12.9196 11V13.53C15.0996 16.01 13.4796 19.33 10.4496 20.89C10.1596 21.04 9.81958 21.04 9.52958 20.89C6.56958 19.36 4.94958 16.17 6.90958 13.7V11C6.90958 10.45 7.35958 10 7.90958 10H8.97958V8.72C6.47958 8.14 4.42958 7.47 2.97958 6.92H2.99958Z" fill="white"/>
</svg>
