<svg width="91" height="101" viewBox="0 0 91 101" fill="none" xmlns="http://www.w3.org/2000/svg">
<path fill-rule="evenodd" clip-rule="evenodd" d="M71.4417 69.3368L66.094 78.0946C65.8401 78.5087 65.4143 78.7899 64.9299 78.8524C64.4494 78.9149 63.965 78.7547 63.6135 78.4227L59.7385 74.7235V100.908H78.9655V88.3095C78.9655 87.4228 79.6842 86.704 80.5671 86.704C81.4538 86.704 82.1726 87.4228 82.1726 88.3095V100.908H90.9187V86.1845C90.9187 83.0868 89.9538 80.1767 88.2781 77.7665L86.7 80.7938C86.3015 81.5516 85.3797 81.8641 84.6023 81.5048L72.6723 75.997C71.9574 75.6649 71.5864 74.8642 71.8012 74.1064L72.9965 69.8447C72.473 69.6767 71.9535 69.5087 71.4379 69.3368L71.4417 69.3368ZM44.7777 69.3485C44.262 69.5126 43.7386 69.6845 43.2191 69.8524L44.4144 74.1063C44.6253 74.8641 44.2581 75.6649 43.5433 75.9969L31.6133 81.5047C30.8359 81.8641 29.9141 81.5516 29.5156 80.7938L27.9414 77.7704C26.2617 80.1806 25.2969 83.0946 25.2969 86.1923V100.907H34.043V88.3093C34.043 87.4226 34.7617 86.7038 35.6485 86.7038C36.5313 86.7038 37.2501 87.4225 37.2501 88.3093V100.907H56.5271V74.6733L52.5974 78.4233C52.2458 78.7592 51.7614 78.9155 51.281 78.853C50.8005 78.7905 50.3747 78.5131 50.1208 78.0991L44.7692 69.3491L44.7777 69.3485ZM52.2035 87.3405C52.2035 86.4538 51.4847 85.7389 50.6019 85.7389H40.9769C40.0901 85.7389 39.3714 86.4538 39.3714 87.3405V96.0944C39.3714 96.735 39.7542 97.3171 40.344 97.571L45.1565 99.6374C45.5628 99.8093 46.0198 99.8093 46.4221 99.6374L51.2346 97.571C51.8245 97.3171 52.2073 96.7351 52.2073 96.0944V87.3405H52.2035ZM76.8445 87.3405C76.8445 86.4538 76.1257 85.7389 75.239 85.7389H65.614C64.7272 85.7389 64.0124 86.4538 64.0124 87.3405V96.0944C64.0124 96.735 64.3952 97.3171 64.9811 97.571L69.7975 99.6374C70.1999 99.8093 70.6569 99.8093 71.0592 99.6374L75.8756 97.571C76.4616 97.3171 76.8483 96.7351 76.8483 96.0944V87.3405H76.8445ZM73.6336 88.9421V95.0359L70.4227 96.4109L67.2118 95.0359V88.9421H73.6336ZM48.9966 88.9421V95.0359L45.7857 96.4109L42.5748 95.0359V88.9421H48.9966ZM75.2386 80.4616H65.6136C64.7308 80.4616 64.012 81.1804 64.012 82.0632C64.012 82.9499 64.7307 83.6687 65.6136 83.6687H75.2386C76.1214 83.6687 76.8441 82.95 76.8441 82.0632C76.8441 81.1804 76.1214 80.4616 75.2386 80.4616ZM50.6016 80.4616H40.9766C40.0898 80.4616 39.3711 81.1804 39.3711 82.0632C39.3711 82.9499 40.0898 83.6687 40.9766 83.6687H50.6016C51.4844 83.6687 52.2032 82.95 52.2032 82.0632C52.2032 81.1804 51.4844 80.4616 50.6016 80.4616ZM40.1606 70.8171C38.7114 71.2624 37.3754 71.6531 36.3208 71.9265C33.9966 72.532 31.9224 73.6726 30.2192 75.196L31.6528 77.9538L40.9575 73.6569L40.1606 70.821L40.1606 70.8171ZM76.0626 70.8093C75.7071 72.0749 75.2618 73.657 75.2618 73.657L84.5665 77.9539L86.004 75.1961C84.3009 73.6727 82.2306 72.532 79.9063 71.9266C78.8516 71.6493 77.5119 71.2585 76.0626 70.8093ZM51.2266 65.239L55.9102 70.8288L51.8243 74.7272L47.6212 67.8561L51.2228 65.2389L51.2266 65.239ZM64.7346 65.2312L68.5744 67.8796L64.3908 74.7312L60.2775 70.8054L64.7346 65.2312ZM63.176 58.8328C61.5471 59.325 59.8401 59.5789 58.1096 59.5789C56.3987 59.5789 54.7112 59.3289 53.1018 58.8523V62.4812L58.0784 68.4226L63.1761 62.0437L63.176 58.8328ZM72.4494 37.4658H43.7734V42.0361C43.7734 45.8408 45.2851 49.4853 47.9726 52.1731C49.1523 53.3528 50.5117 54.302 51.9921 55.0012C52.0507 55.0207 52.1093 55.0403 52.1718 55.0715C54.0116 55.9231 56.0546 56.3059 58.1406 56.3059C59.6484 56.3059 61.1367 56.1067 62.539 55.6731C64.6718 54.9817 66.6328 53.7903 68.2499 52.177C70.9374 49.4895 72.4491 45.8411 72.4491 42.04L72.4494 37.4658ZM73.3517 29.1142C73.9611 28.4189 75.0783 27.0087 75.8126 25.2626C76.4454 23.7626 76.8165 21.9931 76.1173 20.2509C75.0821 17.6689 71.6642 15.9931 67.5821 15.0517C60.9962 13.5322 52.5311 14.1298 47.6841 17.7001C41.5513 22.2079 37.5161 29.2551 36.4341 34.3881C36.1177 35.8881 36.0474 37.1967 36.3325 38.1772C36.4849 38.7084 36.7544 39.1108 37.2622 39.2006C37.7622 39.2904 38.1568 39.3217 38.4731 39.2865C38.5708 39.2787 38.6528 39.2943 38.6919 39.2436C38.8325 39.0639 38.8677 38.81 38.9341 38.5483C39.02 38.1967 39.102 37.8217 39.2153 37.4506C39.4653 36.6224 39.8481 35.8061 40.5669 35.1108V33.0131C40.5669 31.9819 40.9771 30.9896 41.7075 30.2591C42.438 29.5287 43.4302 29.1185 44.4614 29.1185H73.3524L73.3517 29.1142ZM43.7737 34.2587V33.0087C43.7737 32.829 43.844 32.6532 43.9768 32.5243C44.1057 32.3915 44.2815 32.3212 44.4612 32.3212H72.4492V34.2587H43.7737ZM62.3047 16.2857C61.7422 15.8755 60.9805 15.8755 60.418 16.2857L56.2032 19.3521C55.6407 19.7583 55.4063 20.4849 55.6173 21.1451L57.2306 26.1021C57.4415 26.7623 58.0626 27.2115 58.754 27.2115H63.9649C64.6602 27.2115 65.2735 26.7623 65.4883 26.1021L67.0977 21.1451C67.3125 20.481 67.0781 19.7584 66.5156 19.3521L62.3008 16.2857H62.3047ZM61.3594 19.5669L63.6914 21.2622L62.8008 24.0044H59.918L59.0274 21.2622L61.3594 19.5669Z" fill="white"/>
<path fill-rule="evenodd" clip-rule="evenodd" d="M43.5606 55.5575L40.0509 61.3054L35.9376 57.3796L40.3947 51.8054L41.036 52.2477C41.8837 53.2991 42.7394 54.3922 43.5606 55.5575ZM36.2521 45.9775C36.9044 47.0221 37.6598 48.0433 38.4711 49.0749L33.7385 54.9968L28.7619 49.0554V45.4265C30.3713 45.9031 32.0588 46.1531 33.7697 46.1531C34.6047 46.1531 35.4342 46.094 36.2521 45.9775ZM37.1231 24.04C34.123 28.8556 32.6456 34.7147 34.275 41.4753C34.3885 41.9462 34.5291 42.4058 34.6936 42.8564C34.3971 42.8723 34.0993 42.8801 33.8007 42.8801C31.7147 42.8801 29.6717 42.4973 27.8319 41.6457C27.7694 41.6145 27.7108 41.5949 27.6522 41.5754C26.1718 40.8762 24.8124 39.927 23.6327 38.7473C20.9452 36.0595 19.4335 32.415 19.4335 28.6103V24.04H37.1231ZM41.2291 18.8954C40.6151 19.5148 40.023 20.1608 39.4589 20.8329H19.4339V19.5829C19.4339 19.4032 19.5042 19.2274 19.637 19.0985C19.7659 18.9657 19.9417 18.8954 20.1214 18.8954H41.2291ZM51.5926 11.5411C49.3776 12.6215 47.0713 14.0115 44.8782 15.6928H20.1216C19.0904 15.6928 18.0981 16.1029 17.3677 16.8334C16.6372 17.5639 16.2271 18.5561 16.2271 19.5873V21.685C15.5083 22.3803 15.1255 23.1966 14.8755 24.0248C14.788 24.3114 14.7192 24.6003 14.6528 24.8789C14.6332 24.9611 14.6138 25.0424 14.5942 25.1225C14.5814 25.1731 14.5697 25.2235 14.5582 25.2731C14.5103 25.4797 14.4654 25.6729 14.352 25.8178C14.323 25.8556 14.2701 25.8566 14.2048 25.8578C14.1823 25.8583 14.1583 25.8587 14.1333 25.8607C13.8169 25.8959 13.4224 25.8647 12.9224 25.7748C12.4146 25.685 12.145 25.2827 11.9927 24.7514C11.7075 23.7709 11.7778 22.4623 12.0943 20.9623C13.1763 15.8293 17.2114 8.78211 23.3442 4.27431C28.1912 0.70403 36.6564 0.10641 43.2423 1.62591C47.3244 2.56731 50.7423 4.24311 51.7775 6.82511C52.4312 8.45411 52.1493 10.107 51.5926 11.5411ZM35.3986 68.5202C36.5882 68.0628 37.7811 67.611 38.941 67.1717C42.5538 65.8034 45.8466 64.5563 47.723 63.6376C47.1179 61.7797 46.3462 60.1074 45.478 58.5703L41.7541 64.6688C41.5002 65.0829 41.0744 65.3641 40.59 65.4266C40.1096 65.4891 39.6252 65.329 39.2736 64.9969L35.3986 61.2977V68.5202ZM32.1872 69.7776C30.0328 70.6405 28.0051 71.5012 26.3408 72.315C26.3147 72.3138 26.2884 72.3131 26.262 72.3131H16.637C15.7503 72.3131 15.0315 73.028 15.0315 73.9147V82.6686C15.0315 83.3092 15.4143 83.8913 16.0042 84.1452L20.6783 86.1522C20.6517 86.5896 20.6261 87.0331 20.6017 87.4815H12.9102V74.8835C12.9102 73.9968 12.1914 73.278 11.3086 73.278C10.4219 73.278 9.70313 73.9968 9.70313 74.8835V87.4815H0.957031V72.7665C0.957031 69.6688 1.92183 66.7548 3.60153 64.3446L5.17573 67.368C5.57423 68.1258 6.49609 68.4383 7.27343 68.0789L19.2034 62.5711C19.9183 62.2391 20.2855 61.4384 20.0745 60.6805L18.8792 56.4266C19.0518 56.3708 19.2248 56.3146 19.3978 56.2584C19.7432 56.1462 20.0885 56.0339 20.4304 55.9251L25.7809 64.6733C26.0349 65.0874 26.4607 65.3647 26.9411 65.4272C27.4216 65.4897 27.906 65.3334 28.2575 64.9975L32.1872 61.2475V69.7776ZM20.4304 55.9251C20.4329 55.9243 20.4354 55.9235 20.4378 55.9227L20.4293 55.9233L20.4304 55.9251ZM22.0505 75.5163C21.5694 76.7834 21.2007 79.4384 20.9213 82.7605L18.2349 81.6101V75.5163H22.0505ZM16.6367 67.0358H26.2617C27.1446 67.0358 27.8633 67.7546 27.8633 68.6374C27.8633 69.5242 27.1445 70.2429 26.2617 70.2429H16.6367C15.75 70.2429 15.0312 69.5242 15.0312 68.6374C15.0312 67.7546 15.75 67.0358 16.6367 67.0358ZM11.9809 58.5007C13.0355 58.2273 14.3715 57.8366 15.8207 57.3913L15.8207 57.3952L16.6176 60.2311L7.31292 64.528L5.87932 61.7702C7.58252 60.2468 9.65672 59.1062 11.9809 58.5007ZM31.5703 57.403L26.8867 51.8132L26.8829 51.8131L23.2813 54.4303L27.4844 61.3014L31.5703 57.403ZM36.0782 2.85991C36.6407 2.44975 37.4024 2.44975 37.9649 2.85991H37.961L42.1758 5.92631C42.7383 6.33261 42.9727 7.05525 42.7578 7.71931L41.1484 12.6763C40.9336 13.3365 40.3203 13.7857 39.625 13.7857H34.4141C33.7227 13.7857 33.1017 13.3365 32.8907 12.6763L31.2774 7.71931C31.0665 7.05911 31.3009 6.33256 31.8634 5.92631L36.0782 2.85991ZM39.3516 7.83641L37.0196 6.14111L34.6875 7.83641L35.5781 10.5786H38.4609L39.3516 7.83641Z" fill="white"/>
</svg>
