<svg width="66" height="88" viewBox="0 0 66 88" fill="none" xmlns="http://www.w3.org/2000/svg">
<path fill-rule="evenodd" clip-rule="evenodd" d="M46.2991 55.747L40.9514 64.5048C40.6975 64.9188 40.2717 65.2001 39.7873 65.2626C39.3068 65.3251 38.8224 65.1649 38.4709 64.8329L34.5959 61.1337V87.3177H53.8229V74.7197C53.8229 73.833 54.5416 73.1142 55.4245 73.1142C56.3112 73.1142 57.03 73.8329 57.03 74.7197V87.3177H65.7761V72.5947C65.7761 69.497 64.8113 66.5869 63.1355 64.1767L61.5574 67.204C61.1589 67.9618 60.2371 68.2743 59.4597 67.9149L47.5297 62.4071C46.8148 62.0751 46.4438 61.2743 46.6586 60.5165L47.8539 56.2548C47.3305 56.0868 46.8109 55.9189 46.2953 55.747L46.2991 55.747ZM19.6351 55.7587C19.1195 55.9227 18.596 56.0946 18.0765 56.2626L19.2718 60.5165C19.4827 61.2743 19.1155 62.0751 18.4007 62.4071L6.4707 67.9149C5.69336 68.2743 4.7715 67.9618 4.373 67.2039L2.7988 64.1805C1.1191 66.5907 0.154297 69.5047 0.154297 72.6024V87.3174H8.9004V74.7194C8.9004 73.8327 9.61915 73.1139 10.5059 73.1139C11.3887 73.1139 12.1075 73.8327 12.1075 74.7194V87.3174H31.3845V61.0834L27.4548 64.8334C27.1032 65.1694 26.6189 65.3256 26.1384 65.2631C25.6579 65.2006 25.2321 64.9233 24.9782 64.5092L19.6266 55.7592L19.6351 55.7587ZM27.0609 73.7507C27.0609 72.864 26.3421 72.1491 25.4593 72.1491H15.8343C14.9476 72.1491 14.2288 72.8639 14.2288 73.7507V82.5046C14.2288 83.1452 14.6116 83.7273 15.2014 83.9812L20.0139 86.0476C20.4202 86.2194 20.8772 86.2194 21.2795 86.0476L26.092 83.9812C26.6819 83.7273 27.0647 83.1452 27.0647 82.5046V73.7507H27.0609ZM51.7019 73.7507C51.7019 72.864 50.9831 72.1491 50.0964 72.1491H40.4714C39.5847 72.1491 38.8698 72.8639 38.8698 73.7507V82.5046C38.8698 83.1452 39.2526 83.7273 39.8385 83.9812L44.6549 86.0476C45.0573 86.2194 45.5143 86.2194 45.9166 86.0476L50.733 83.9812C51.319 83.7273 51.7057 83.1452 51.7057 82.5046V73.7507H51.7019ZM48.491 75.3523V81.4461L45.2801 82.8211L42.0692 81.4461V75.3523H48.491ZM23.854 75.3523V81.4461L20.6431 82.8211L17.4322 81.4461V75.3523H23.854ZM50.096 66.8718H40.471C39.5882 66.8718 38.8694 67.5905 38.8694 68.4734C38.8694 69.3601 39.5881 70.0789 40.471 70.0789H50.096C50.9788 70.0789 51.7015 69.3601 51.7015 68.4734C51.7015 67.5906 50.9788 66.8718 50.096 66.8718ZM25.459 66.8718H15.834C14.9473 66.8718 14.2285 67.5905 14.2285 68.4734C14.2285 69.3601 14.9472 70.0789 15.834 70.0789H25.459C26.3418 70.0789 27.0606 69.3601 27.0606 68.4734C27.0606 67.5906 26.3418 66.8718 25.459 66.8718ZM15.018 57.2273C13.5688 57.6726 12.2328 58.0632 11.1782 58.3367C8.85399 58.9421 6.77979 60.0828 5.07659 61.6062L6.51019 64.364L15.8149 60.0671L15.018 57.2312L15.018 57.2273ZM50.92 57.2195C50.5645 58.4851 50.1192 60.0672 50.1192 60.0672L59.4239 64.3641L60.8614 61.6063C59.1583 60.0829 57.088 58.9422 54.7637 58.3368C53.709 58.0594 52.3693 57.6687 50.92 57.2195ZM26.084 51.6492L30.7676 57.239L26.6817 61.1374L22.4786 54.2663L26.0802 51.6491L26.084 51.6492ZM39.592 51.6413L43.4318 54.2897L39.2482 61.1413L35.1349 57.2155L39.592 51.6413ZM38.0334 45.2429C36.4045 45.7351 34.6975 45.989 32.967 45.989C31.2561 45.989 29.5686 45.739 27.9592 45.2625V48.8914L32.9358 54.8328L38.0335 48.4539L38.0334 45.2429ZM47.3068 23.8759H18.6308V28.4462C18.6308 32.2509 20.1425 35.8954 22.83 38.5832C24.0097 39.7629 25.3691 40.7121 26.8495 41.4113C26.9081 41.4309 26.9667 41.4504 27.0292 41.4817C28.869 42.3332 30.912 42.7161 32.998 42.7161C34.5058 42.7161 35.9941 42.5168 37.3964 42.0832C39.5292 41.3918 41.4902 40.2005 43.1073 38.5872C45.7948 35.8997 47.3065 32.2512 47.3065 28.4501L47.3068 23.8759ZM48.2091 15.5243C48.8185 14.829 49.9357 13.4188 50.67 11.6727C51.3028 10.1727 51.6739 8.40325 50.9747 6.66105C49.9395 4.07905 46.5216 2.40325 42.4395 1.46185C35.8536 -0.0576528 27.3885 0.539967 22.5415 4.11025C16.4087 8.61805 12.3735 15.6652 11.2915 20.7982C10.9751 22.2982 10.9048 23.6068 11.19 24.5873C11.3423 25.1186 11.6118 25.5209 12.1196 25.6107C12.6196 25.7006 13.0142 25.7318 13.3305 25.6967C13.4282 25.6889 13.5102 25.7045 13.5493 25.6537C13.6899 25.474 13.7251 25.2201 13.7915 24.9584C13.8774 24.6068 13.9595 24.2318 14.0727 23.8607C14.3227 23.0326 14.7055 22.2162 15.4243 21.5209V19.4232C15.4243 18.392 15.8345 17.3998 16.5649 16.6693C17.2954 15.9388 18.2876 15.5287 19.3188 15.5287H48.2098L48.2091 15.5243ZM18.6311 20.6688V19.4188C18.6311 19.2392 18.7014 19.0634 18.8343 18.9345C18.9632 18.8017 19.1389 18.7313 19.3186 18.7313H47.3066V20.6688H18.6311ZM37.1621 2.69585C36.5996 2.28569 35.8379 2.28569 35.2754 2.69585L31.0606 5.76225C30.4981 6.1685 30.2637 6.89505 30.4747 7.55525L32.088 12.5122C32.2989 13.1724 32.92 13.6216 33.6114 13.6216H38.8223C39.5176 13.6216 40.1309 13.1724 40.3457 12.5122L41.9551 7.55525C42.1699 6.89119 41.9356 6.16855 41.3731 5.76225L37.1583 2.69585H37.1621ZM36.2168 5.97705L38.5488 7.67235L37.6582 10.4145H34.7754L33.8848 7.67235L36.2168 5.97705Z" fill="white"/>
</svg>
