<svg width="59" height="100" viewBox="0 0 59 100" fill="none" xmlns="http://www.w3.org/2000/svg">
<path d="M56.9655 67.6143C57.9665 59.8212 58.5024 46.9722 58.5024 46.9722C58.2004 38.7352 52.5764 36.3532 50.9784 35.5522C49.3794 34.7512 39.3854 32.2053 36.5154 29.9043C33.6424 27.6043 36.3335 20.9283 37.2445 14.4173C38.1545 7.90625 37.6285 5.14425 34.3675 2.46825C33.0365 1.37625 31.6665 0.90625 29.2855 0.90625C26.9035 0.90625 25.5325 1.37625 24.2025 2.46825C20.9405 5.14525 20.4145 7.90625 21.3255 14.4173C22.2355 20.9273 24.9255 27.6043 22.0535 29.9043C19.1815 32.2053 9.18745 34.7512 7.58945 35.5522C5.99145 36.3522 0.367453 38.7352 0.0644531 46.9722C0.0644531 46.9722 0.600452 59.8212 1.60145 67.6143C2.39045 73.7573 -0.0295482 82.1592 0.792452 93.7822C0.935452 95.8052 1.08045 97.5653 1.22345 99.0933H29.2855H57.3465C57.4895 97.5663 57.6315 95.8062 57.7785 93.7822C58.5975 82.1592 56.1765 73.7573 56.9655 67.6143ZM27.3885 25.5942C28.1665 25.5942 28.7965 26.2253 28.7965 27.0023C28.7965 27.7793 28.1665 28.4102 27.3885 28.4102C26.6105 28.4102 25.9805 27.7793 25.9805 27.0023C25.9805 26.2253 26.6095 25.5942 27.3885 25.5942ZM51.6304 74.6343C51.6304 87.2473 41.6835 97.4893 29.3865 97.4893C17.0895 97.4893 7.14145 87.2473 7.14145 74.6343V53.6202C7.14145 41.0072 17.0915 30.7642 29.3865 30.7642C41.6825 30.7642 51.6304 41.0062 51.6304 53.6202V74.6343Z" fill="white"/>
<path d="M29.3857 31.5508C17.5447 31.5508 7.92773 41.4218 7.92773 53.6218V74.6358C7.92773 86.8348 17.5447 96.7058 29.3857 96.7058C41.2267 96.7058 50.8437 86.8348 50.8437 74.6358V53.6218C50.8447 41.4218 41.2277 31.5508 29.3857 31.5508ZM39.2857 35.3088C40.0637 35.3088 40.6937 35.9398 40.6937 36.7178C40.6937 37.4958 40.0637 38.1268 39.2857 38.1268C38.5077 38.1268 37.8777 37.4958 37.8777 36.7178C37.8777 35.9398 38.5077 35.3088 39.2857 35.3088ZM13.8777 88.5318C13.0997 88.5318 12.4697 87.9008 12.4697 87.1238C12.4697 86.3468 13.0997 85.7158 13.8777 85.7158C14.6557 85.7158 15.2857 86.3468 15.2857 87.1238C15.2857 87.9008 14.6567 88.5318 13.8777 88.5318ZM46.3017 73.7488C46.3017 82.6488 38.5507 89.5668 29.3857 89.5668C20.2217 89.5668 12.4697 82.6488 12.4697 73.7488V54.5088C12.4697 45.6078 20.2207 38.6898 29.3857 38.6898C38.5497 38.6898 46.3017 45.6078 46.3017 54.5088V73.7488Z" fill="white"/>
<path d="M29.3868 59.8242C27.7758 59.8242 26.7578 60.8492 26.7578 61.8032V66.4532C26.7578 67.4042 27.7758 68.4322 29.3868 68.4322C30.9968 68.4322 32.0138 67.4052 32.0138 66.4532V61.8032C32.0148 60.8502 30.9978 59.8242 29.3868 59.8242ZM29.4388 64.9842C28.6608 64.9842 28.0308 64.3532 28.0308 63.5762C28.0308 62.7992 28.6608 62.1682 29.4388 62.1682C30.2168 62.1682 30.8458 62.7992 30.8458 63.5762C30.8458 64.3532 30.2178 64.9842 29.4388 64.9842Z" fill="white"/>
<path d="M29.3861 54.9492C27.8491 54.9492 26.5511 55.4052 25.5641 56.0952C25.6361 56.2642 25.6771 56.4502 25.6771 56.6472C25.6771 57.4242 25.0471 58.0552 24.2691 58.0552C24.1541 58.0552 24.0451 58.0372 23.9381 58.0122C23.7451 58.4572 23.6211 58.9192 23.6211 59.3882V68.8632C23.6211 71.1032 25.9601 73.3012 29.3861 73.3012C32.8121 73.3012 35.1521 71.1042 35.1521 68.8632V59.3882C35.1521 57.1482 32.8121 54.9492 29.3861 54.9492ZM32.8021 66.4512C32.8021 67.9802 31.2741 69.2152 29.3871 69.2152C27.5001 69.2152 25.9721 67.9812 25.9721 66.4512V61.8012C25.9721 60.2722 27.5001 59.0352 29.3871 59.0352C31.2751 59.0352 32.8021 60.2712 32.8021 61.8012V66.4512Z" fill="white"/>
<path d="M29.3852 47.8906C23.3292 47.8906 19.0762 51.7886 19.0762 55.8916V72.3586C19.0762 76.4636 23.3292 80.3606 29.3852 80.3606C32.2402 80.3606 34.6852 79.4886 36.4822 78.1426C36.5452 77.4236 37.1422 76.8586 37.8782 76.8586C39.0352 75.5366 39.6942 73.9646 39.6942 72.3586V55.8926C39.6942 51.7876 35.4422 47.8906 29.3852 47.8906ZM30.6382 49.8776C31.4152 49.8776 32.0462 50.5086 32.0462 51.2856C32.0462 52.0626 31.4152 52.6936 30.6382 52.6936C29.8592 52.6936 29.2292 52.0626 29.2292 51.2856C29.2292 50.5086 29.8582 49.8776 30.6382 49.8776ZM35.9372 68.8626C35.9372 71.6786 33.0882 74.0876 29.3882 74.0876C25.6862 74.0876 22.8372 71.6796 22.8372 68.8626V59.3876C22.8372 58.7646 22.9832 58.1636 23.2402 57.6026C23.0072 57.3506 22.8612 57.0166 22.8612 56.6466C22.8612 55.8696 23.4912 55.2386 24.2692 55.2386C24.5592 55.2386 24.8282 55.3266 25.0512 55.4756C26.1952 54.6646 27.7012 54.1616 29.3882 54.1616C33.0892 54.1616 35.9372 56.5716 35.9372 59.3886V68.8626Z" fill="white"/>
</svg>
