<svg height="24" viewBox="0 0 66 76" fill="none" xmlns="http://www.w3.org/2000/svg">
<path d="M33.0938 0C29.608 0 27.19 1.29629 25.4062 2.65619C23.6225 4.01609 22.3763 5.30899 20.25 6.15619C19.497 6.43179 18.9514 7.1982 18.9375 8H0V12H66V8H47.0625C47.0486 7.1982 46.503 6.43179 45.75 6.15619C43.6091 5.30539 42.2977 4.00439 40.5312 2.65619C38.7648 1.30799 36.4158 0 33.0938 0ZM6 14V67.0312C6 73.0142 8.98459 76 15.0312 76H51.0312C56.9905 76 60 73.0142 60 67.0312V14H6ZM17 27H21V63H17V27ZM31 27H35V63H31V27ZM45 27H49V63H45V27Z" fill="#e53935"/>
</svg>
