<svg width="354" height="403" viewBox="0 0 354 403" fill="none" xmlns="http://www.w3.org/2000/svg">
<path fill-rule="evenodd" clip-rule="evenodd" d="M106.076 151.752C72.4404 149.961 47.2674 121.227 45.4384 87.8651C45.4188 87.3927 45.0251 87.0188 44.5331 87.0188H34.7515C34.2988 87.0188 33.9052 86.6842 33.8461 86.2118C28.8274 43.4834 59.6484 5.24426 101.749 0.498063C102.28 0.439017 102.753 0.852322 102.753 1.40341V60.8821C102.753 61.3741 102.339 61.7874 101.847 61.7874H80.946C72.6407 61.7874 65.5944 66.8848 63.0163 74.777L59.0406 86.6843C58.9029 86.8615 58.8241 87.0779 58.8438 87.3141C60.3986 114.533 81.0441 137.976 108.5 138.429C109.091 138.449 109.504 139 109.366 139.551C108.402 143.29 107.614 147.108 107.024 150.986C106.945 151.458 106.529 151.792 106.076 151.752ZM297.44 180.96C297.44 180.468 297.853 180.074 298.345 180.074H315.074C315.527 180.074 315.921 179.739 315.98 179.267C322.691 123.33 281.36 73.46 225.782 69.132C225.25 69.0926 224.798 69.5059 224.798 70.0374V146.894C224.798 147.386 225.211 147.799 225.703 147.799H255.777C266.385 147.799 275.399 154.333 278.725 164.41C281.402 172.558 280.654 168.917 280.851 177.774C281.343 196.156 274.966 214.322 262.33 227.804C237.945 253.862 198.463 253.862 174.077 227.804C161.462 214.322 155.065 196.156 155.557 177.774L155.675 169.449L157.289 164.41C160.595 154.333 169.609 147.799 180.238 147.799H210.311C210.803 147.799 211.216 147.386 211.216 146.894V70.0575C211.216 69.5261 210.764 69.1128 210.232 69.1522C154.673 73.4624 113.343 123.356 120.054 179.287C120.113 179.74 120.487 180.094 120.96 180.094H138.082C138.574 180.094 138.988 180.488 138.988 180.98C139.519 225.342 173.43 263.958 218.227 263.958C263.002 263.958 296.892 225.343 297.446 180.96H297.44ZM132.945 349.512C133.182 349.689 133.319 349.945 133.319 350.24V401.985C133.319 402.477 133.733 402.89 134.225 402.89H301.853C302.345 402.89 302.759 402.477 302.759 401.985V350.24C302.759 349.945 302.896 349.689 303.133 349.512L335.902 325.324C336.276 325.048 336.374 324.556 336.158 324.163C322.459 299.01 301.204 282.773 272.487 273.068C272.113 272.95 271.739 273.048 271.483 273.363L253.396 296.312C248.004 303.141 239.895 306.9 230.448 306.9H205.63C196.183 306.9 188.074 303.161 182.681 296.312L164.594 273.363C164.358 273.068 163.964 272.95 163.59 273.068C134.875 282.751 113.639 299.008 99.9198 324.163C99.7033 324.556 99.8017 325.048 100.176 325.324L132.945 349.512ZM82.2638 401.902C84.0351 378.875 86.0229 358.071 93.3247 338.569C93.5412 337.998 94.23 337.801 94.7024 338.155L119.363 356.361C119.599 356.538 119.737 356.794 119.737 357.089V401.982C119.737 402.474 119.324 402.888 118.832 402.888H83.1691C82.6377 402.888 82.2245 402.433 82.2638 401.902ZM254.301 273.246L242.728 287.928C239.697 291.786 235.249 293.34 230.427 293.34H205.609C200.787 293.34 196.359 291.785 193.308 287.928L181.755 273.265C181.165 272.517 181.972 271.494 182.838 271.887C205.137 281.964 230.919 281.964 253.199 271.868C254.085 271.474 254.891 272.498 254.301 273.246ZM342.71 338.569C350.012 358.073 352 378.876 353.771 401.902C353.811 402.433 353.397 402.886 352.866 402.886H317.203C316.711 402.886 316.298 402.473 316.298 401.98V357.087C316.298 356.792 316.436 356.536 316.672 356.359L341.332 338.154C341.825 337.819 342.513 338.018 342.71 338.569ZM183.607 60.9414L158.257 72.9469C157.805 73.1634 157.273 72.9666 157.057 72.514C153.947 65.9403 147.492 61.7876 140.013 61.7876H117.242C116.75 61.7876 116.336 61.3743 116.336 60.8823V1.22728C116.336 0.695879 116.789 0.28258 117.32 0.32193C150.759 3.25445 178.079 27.5214 185.596 59.4227C185.852 60.5052 184.435 60.6626 183.254 61.0366L183.607 60.9414ZM80.6162 325.026H57.176C56.6839 325.026 56.2706 324.612 56.2706 324.12V231.322C56.2706 225.398 53.5742 220.321 48.4374 216.522L18.4627 194.381C18.0888 194.105 17.9904 193.613 18.2069 193.219C28.8939 173.676 45.4456 161.021 67.784 153.463C68.158 153.345 68.5516 153.444 68.7878 153.758L82.8405 171.61C87.0523 176.963 93.4096 179.895 100.79 179.895H105.946C106.399 179.895 106.792 180.23 106.852 180.683L108.367 192.59C108.426 193.043 108.8 193.377 109.272 193.377H128.324C128.796 193.377 129.17 193.731 129.229 194.204C131.315 216.64 141.018 237.424 155.976 252.836C156.429 253.308 156.252 254.096 155.641 254.312C119.94 267.341 94.9032 290.467 81.501 324.437C81.3042 324.811 80.9902 325.026 80.6162 325.026ZM41.7851 325.026C42.2771 325.026 42.6904 324.612 42.6904 324.12V231.322C42.6904 229.551 41.7654 228.469 40.368 227.445L13.2275 207.409C12.7355 207.035 12.0269 207.272 11.8301 207.842C5.78806 225.89 5.07966 245.414 3.26885 267.573C2.00924 283.003 1.20229 298.414 0.887386 313.844C0.769295 319.453 4.31195 325.043 9.80289 325.043L41.7851 325.026Z" fill="black"/>
</svg>
